<mxfile host="app.diagrams.net" modified="2024-02-01T18:44:39.024Z" agent="Mozilla/5.0 (Macintosh; Intel Mac OS X 10.15; rv:122.0) Gecko/20100101 Firefox/122.0" version="23.1.1" etag="7ORUr5sJk8Qd3Z0qSryb" type="github">
  <diagram name="Page-1" id="09RVgQkJIHZIqzV4WNrn">
    <mxGraphModel>
      <root>
        <mxCell id="0" />
        <mxCell id="1" parent="0" />
      </root>
    </mxGraphModel>
  </diagram>
</mxfile>
